<mxfile host="Electron" modified="2024-01-21T07:07:33.799Z" agent="Mozilla/5.0 (X11; Linux x86_64) AppleWebKit/537.36 (KHTML, like Gecko) draw.io/22.1.21 Chrome/120.0.6099.109 Electron/28.1.0 Safari/537.36" etag="zMCrBc7oIrNrPXoKwBrj" version="22.1.21" type="device">
  <diagram id="C5RBs43oDa-KdzZeNtuy" name="Page-1">
    <mxGraphModel dx="892" dy="962" grid="1" gridSize="10" guides="1" tooltips="1" connect="1" arrows="1" fold="1" page="0" pageScale="1" pageWidth="827" pageHeight="1169" math="0" shadow="0">
      <root>
        <mxCell id="WIyWlLk6GJQsqaUBKTNV-0" />
        <mxCell id="WIyWlLk6GJQsqaUBKTNV-1" parent="WIyWlLk6GJQsqaUBKTNV-0" />
        <mxCell id="KJHNV3jYbjOyEQVk-YHy-24" style="edgeStyle=orthogonalEdgeStyle;rounded=0;orthogonalLoop=1;jettySize=auto;html=1;" edge="1" parent="WIyWlLk6GJQsqaUBKTNV-1" source="KJHNV3jYbjOyEQVk-YHy-4" target="KJHNV3jYbjOyEQVk-YHy-8">
          <mxGeometry relative="1" as="geometry" />
        </mxCell>
        <mxCell id="KJHNV3jYbjOyEQVk-YHy-4" value="&lt;i&gt;BasePromptTemplate&lt;/i&gt;" style="swimlane;fontStyle=1;align=center;verticalAlign=top;childLayout=stackLayout;horizontal=1;startSize=26;horizontalStack=0;resizeParent=1;resizeParentMax=0;resizeLast=0;collapsible=1;marginBottom=0;whiteSpace=wrap;html=1;" vertex="1" parent="WIyWlLk6GJQsqaUBKTNV-1">
          <mxGeometry x="210" y="200" width="160" height="190" as="geometry">
            <mxRectangle x="210" y="280" width="100" height="30" as="alternateBounds" />
          </mxGeometry>
        </mxCell>
        <mxCell id="KJHNV3jYbjOyEQVk-YHy-5" value="+&amp;nbsp;input_variables:List&lt;br&gt;+&amp;nbsp;output_parser&lt;br&gt;+&amp;nbsp;partial_variables" style="text;strokeColor=none;fillColor=none;align=left;verticalAlign=top;spacingLeft=4;spacingRight=4;overflow=hidden;rotatable=0;points=[[0,0.5],[1,0.5]];portConstraint=eastwest;whiteSpace=wrap;html=1;" vertex="1" parent="KJHNV3jYbjOyEQVk-YHy-4">
          <mxGeometry y="26" width="160" height="54" as="geometry" />
        </mxCell>
        <mxCell id="KJHNV3jYbjOyEQVk-YHy-6" value="" style="line;strokeWidth=1;fillColor=none;align=left;verticalAlign=middle;spacingTop=-1;spacingLeft=3;spacingRight=3;rotatable=0;labelPosition=right;points=[];portConstraint=eastwest;strokeColor=inherit;" vertex="1" parent="KJHNV3jYbjOyEQVk-YHy-4">
          <mxGeometry y="80" width="160" height="8" as="geometry" />
        </mxCell>
        <mxCell id="KJHNV3jYbjOyEQVk-YHy-7" value="+&amp;nbsp;invoke()&lt;br&gt;+&amp;nbsp;partial()&lt;br&gt;+ dict()&lt;br&gt;+ save()&lt;br&gt;&lt;i&gt;+&amp;nbsp;format_prompt()&lt;br&gt;+ format()&lt;/i&gt;" style="text;strokeColor=none;fillColor=none;align=left;verticalAlign=top;spacingLeft=4;spacingRight=4;overflow=hidden;rotatable=0;points=[[0,0.5],[1,0.5]];portConstraint=eastwest;whiteSpace=wrap;html=1;" vertex="1" parent="KJHNV3jYbjOyEQVk-YHy-4">
          <mxGeometry y="88" width="160" height="102" as="geometry" />
        </mxCell>
        <mxCell id="KJHNV3jYbjOyEQVk-YHy-25" style="edgeStyle=orthogonalEdgeStyle;rounded=0;orthogonalLoop=1;jettySize=auto;html=1;" edge="1" parent="WIyWlLk6GJQsqaUBKTNV-1" source="KJHNV3jYbjOyEQVk-YHy-8" target="KJHNV3jYbjOyEQVk-YHy-16">
          <mxGeometry relative="1" as="geometry" />
        </mxCell>
        <mxCell id="KJHNV3jYbjOyEQVk-YHy-8" value="RunnableSerializable" style="swimlane;fontStyle=1;align=center;verticalAlign=top;childLayout=stackLayout;horizontal=1;startSize=26;horizontalStack=0;resizeParent=1;resizeParentMax=0;resizeLast=0;collapsible=1;marginBottom=0;whiteSpace=wrap;html=1;" vertex="1" parent="WIyWlLk6GJQsqaUBKTNV-1">
          <mxGeometry x="210" y="120" width="160" height="34" as="geometry">
            <mxRectangle x="210" y="280" width="100" height="30" as="alternateBounds" />
          </mxGeometry>
        </mxCell>
        <mxCell id="KJHNV3jYbjOyEQVk-YHy-10" value="" style="line;strokeWidth=1;fillColor=none;align=left;verticalAlign=middle;spacingTop=-1;spacingLeft=3;spacingRight=3;rotatable=0;labelPosition=right;points=[];portConstraint=eastwest;strokeColor=inherit;" vertex="1" parent="KJHNV3jYbjOyEQVk-YHy-8">
          <mxGeometry y="26" width="160" height="8" as="geometry" />
        </mxCell>
        <mxCell id="KJHNV3jYbjOyEQVk-YHy-12" value="&lt;i&gt;Runnable&lt;/i&gt;" style="swimlane;fontStyle=1;align=center;verticalAlign=top;childLayout=stackLayout;horizontal=1;startSize=26;horizontalStack=0;resizeParent=1;resizeParentMax=0;resizeLast=0;collapsible=1;marginBottom=0;whiteSpace=wrap;html=1;" vertex="1" parent="WIyWlLk6GJQsqaUBKTNV-1">
          <mxGeometry x="350" y="-160" width="160" height="194" as="geometry">
            <mxRectangle x="210" y="280" width="100" height="30" as="alternateBounds" />
          </mxGeometry>
        </mxCell>
        <mxCell id="KJHNV3jYbjOyEQVk-YHy-14" value="" style="line;strokeWidth=1;fillColor=none;align=left;verticalAlign=middle;spacingTop=-1;spacingLeft=3;spacingRight=3;rotatable=0;labelPosition=right;points=[];portConstraint=eastwest;strokeColor=inherit;" vertex="1" parent="KJHNV3jYbjOyEQVk-YHy-12">
          <mxGeometry y="26" width="160" height="8" as="geometry" />
        </mxCell>
        <mxCell id="KJHNV3jYbjOyEQVk-YHy-15" value="+&amp;nbsp;&lt;i&gt;invoke()&lt;br&gt;+&amp;nbsp;&lt;/i&gt;ainvoke()&lt;br&gt;+&amp;nbsp;batch()&lt;br&gt;+&amp;nbsp;abatch()&lt;br&gt;+&amp;nbsp;stream()&lt;br&gt;+&amp;nbsp;astream()&lt;br&gt;+&amp;nbsp;transform()&lt;br&gt;+&amp;nbsp;atransform()&lt;br&gt;+&amp;nbsp;input_schema()&lt;br&gt;+ output_schema()" style="text;strokeColor=none;fillColor=none;align=left;verticalAlign=top;spacingLeft=4;spacingRight=4;overflow=hidden;rotatable=0;points=[[0,0.5],[1,0.5]];portConstraint=eastwest;whiteSpace=wrap;html=1;" vertex="1" parent="KJHNV3jYbjOyEQVk-YHy-12">
          <mxGeometry y="34" width="160" height="160" as="geometry" />
        </mxCell>
        <mxCell id="KJHNV3jYbjOyEQVk-YHy-16" value="&lt;i&gt;Serializable&lt;/i&gt;" style="swimlane;fontStyle=1;align=center;verticalAlign=top;childLayout=stackLayout;horizontal=1;startSize=26;horizontalStack=0;resizeParent=1;resizeParentMax=0;resizeLast=0;collapsible=1;marginBottom=0;whiteSpace=wrap;html=1;" vertex="1" parent="WIyWlLk6GJQsqaUBKTNV-1">
          <mxGeometry x="100" y="-26" width="160" height="60" as="geometry">
            <mxRectangle x="210" y="280" width="100" height="30" as="alternateBounds" />
          </mxGeometry>
        </mxCell>
        <mxCell id="KJHNV3jYbjOyEQVk-YHy-18" value="" style="line;strokeWidth=1;fillColor=none;align=left;verticalAlign=middle;spacingTop=-1;spacingLeft=3;spacingRight=3;rotatable=0;labelPosition=right;points=[];portConstraint=eastwest;strokeColor=inherit;" vertex="1" parent="KJHNV3jYbjOyEQVk-YHy-16">
          <mxGeometry y="26" width="160" height="8" as="geometry" />
        </mxCell>
        <mxCell id="KJHNV3jYbjOyEQVk-YHy-19" value="+&amp;nbsp;to_json()" style="text;strokeColor=none;fillColor=none;align=left;verticalAlign=top;spacingLeft=4;spacingRight=4;overflow=hidden;rotatable=0;points=[[0,0.5],[1,0.5]];portConstraint=eastwest;whiteSpace=wrap;html=1;" vertex="1" parent="KJHNV3jYbjOyEQVk-YHy-16">
          <mxGeometry y="34" width="160" height="26" as="geometry" />
        </mxCell>
        <mxCell id="KJHNV3jYbjOyEQVk-YHy-23" style="edgeStyle=orthogonalEdgeStyle;rounded=0;orthogonalLoop=1;jettySize=auto;html=1;entryX=0.547;entryY=0.997;entryDx=0;entryDy=0;entryPerimeter=0;" edge="1" parent="WIyWlLk6GJQsqaUBKTNV-1" source="KJHNV3jYbjOyEQVk-YHy-8" target="KJHNV3jYbjOyEQVk-YHy-15">
          <mxGeometry relative="1" as="geometry" />
        </mxCell>
        <mxCell id="KJHNV3jYbjOyEQVk-YHy-30" style="edgeStyle=orthogonalEdgeStyle;rounded=0;orthogonalLoop=1;jettySize=auto;html=1;" edge="1" parent="WIyWlLk6GJQsqaUBKTNV-1" source="KJHNV3jYbjOyEQVk-YHy-26" target="KJHNV3jYbjOyEQVk-YHy-4">
          <mxGeometry relative="1" as="geometry" />
        </mxCell>
        <mxCell id="KJHNV3jYbjOyEQVk-YHy-26" value="&lt;i&gt;StringPromptTemplate&lt;/i&gt;" style="swimlane;fontStyle=1;align=center;verticalAlign=top;childLayout=stackLayout;horizontal=1;startSize=26;horizontalStack=0;resizeParent=1;resizeParentMax=0;resizeLast=0;collapsible=1;marginBottom=0;whiteSpace=wrap;html=1;" vertex="1" parent="WIyWlLk6GJQsqaUBKTNV-1">
          <mxGeometry x="210" y="440" width="160" height="60" as="geometry">
            <mxRectangle x="210" y="280" width="100" height="30" as="alternateBounds" />
          </mxGeometry>
        </mxCell>
        <mxCell id="KJHNV3jYbjOyEQVk-YHy-28" value="" style="line;strokeWidth=1;fillColor=none;align=left;verticalAlign=middle;spacingTop=-1;spacingLeft=3;spacingRight=3;rotatable=0;labelPosition=right;points=[];portConstraint=eastwest;strokeColor=inherit;" vertex="1" parent="KJHNV3jYbjOyEQVk-YHy-26">
          <mxGeometry y="26" width="160" height="8" as="geometry" />
        </mxCell>
        <mxCell id="KJHNV3jYbjOyEQVk-YHy-29" value="+&amp;nbsp;format_prompt()" style="text;strokeColor=none;fillColor=none;align=left;verticalAlign=top;spacingLeft=4;spacingRight=4;overflow=hidden;rotatable=0;points=[[0,0.5],[1,0.5]];portConstraint=eastwest;whiteSpace=wrap;html=1;" vertex="1" parent="KJHNV3jYbjOyEQVk-YHy-26">
          <mxGeometry y="34" width="160" height="26" as="geometry" />
        </mxCell>
        <mxCell id="KJHNV3jYbjOyEQVk-YHy-35" style="edgeStyle=orthogonalEdgeStyle;rounded=0;orthogonalLoop=1;jettySize=auto;html=1;" edge="1" parent="WIyWlLk6GJQsqaUBKTNV-1" source="KJHNV3jYbjOyEQVk-YHy-31" target="KJHNV3jYbjOyEQVk-YHy-26">
          <mxGeometry relative="1" as="geometry" />
        </mxCell>
        <mxCell id="KJHNV3jYbjOyEQVk-YHy-31" value="PromptTemplate" style="swimlane;fontStyle=1;align=center;verticalAlign=top;childLayout=stackLayout;horizontal=1;startSize=26;horizontalStack=0;resizeParent=1;resizeParentMax=0;resizeLast=0;collapsible=1;marginBottom=0;whiteSpace=wrap;html=1;" vertex="1" parent="WIyWlLk6GJQsqaUBKTNV-1">
          <mxGeometry x="210" y="570" width="160" height="170" as="geometry">
            <mxRectangle x="210" y="280" width="100" height="30" as="alternateBounds" />
          </mxGeometry>
        </mxCell>
        <mxCell id="KJHNV3jYbjOyEQVk-YHy-32" value="+&amp;nbsp;input_variables:List[str]&lt;br&gt;+&amp;nbsp;template:str&lt;br&gt;+&amp;nbsp;template_format: str&amp;nbsp;" style="text;strokeColor=none;fillColor=none;align=left;verticalAlign=top;spacingLeft=4;spacingRight=4;overflow=hidden;rotatable=0;points=[[0,0.5],[1,0.5]];portConstraint=eastwest;whiteSpace=wrap;html=1;" vertex="1" parent="KJHNV3jYbjOyEQVk-YHy-31">
          <mxGeometry y="26" width="160" height="54" as="geometry" />
        </mxCell>
        <mxCell id="KJHNV3jYbjOyEQVk-YHy-33" value="" style="line;strokeWidth=1;fillColor=none;align=left;verticalAlign=middle;spacingTop=-1;spacingLeft=3;spacingRight=3;rotatable=0;labelPosition=right;points=[];portConstraint=eastwest;strokeColor=inherit;" vertex="1" parent="KJHNV3jYbjOyEQVk-YHy-31">
          <mxGeometry y="80" width="160" height="8" as="geometry" />
        </mxCell>
        <mxCell id="KJHNV3jYbjOyEQVk-YHy-34" value="+&amp;nbsp;__add__&lt;span style=&quot;background-color: initial;&quot;&gt;()&lt;/span&gt;&lt;br&gt;+&amp;nbsp;format&lt;span style=&quot;background-color: initial;&quot;&gt;()&lt;/span&gt;&lt;br&gt;+&amp;nbsp;from_examples()&lt;br&gt;+&amp;nbsp;from_file&lt;span style=&quot;background-color: initial;&quot;&gt;()&lt;/span&gt;&lt;br&gt;&lt;i&gt;+&amp;nbsp;&lt;/i&gt;from_template&lt;i style=&quot;background-color: initial;&quot;&gt;()&lt;/i&gt;" style="text;strokeColor=none;fillColor=none;align=left;verticalAlign=top;spacingLeft=4;spacingRight=4;overflow=hidden;rotatable=0;points=[[0,0.5],[1,0.5]];portConstraint=eastwest;whiteSpace=wrap;html=1;" vertex="1" parent="KJHNV3jYbjOyEQVk-YHy-31">
          <mxGeometry y="88" width="160" height="82" as="geometry" />
        </mxCell>
        <mxCell id="KJHNV3jYbjOyEQVk-YHy-36" value="PromptTemplate" style="swimlane;fontStyle=1;align=center;verticalAlign=top;childLayout=stackLayout;horizontal=1;startSize=26;horizontalStack=0;resizeParent=1;resizeParentMax=0;resizeLast=0;collapsible=1;marginBottom=0;whiteSpace=wrap;html=1;" vertex="1" parent="WIyWlLk6GJQsqaUBKTNV-1">
          <mxGeometry x="-10" y="570" width="160" height="170" as="geometry">
            <mxRectangle x="210" y="280" width="100" height="30" as="alternateBounds" />
          </mxGeometry>
        </mxCell>
        <mxCell id="KJHNV3jYbjOyEQVk-YHy-37" value="+&amp;nbsp;input_variables:List[str]&lt;br&gt;+&amp;nbsp;template:str&lt;br&gt;+&amp;nbsp;template_format: str&amp;nbsp;" style="text;strokeColor=none;fillColor=none;align=left;verticalAlign=top;spacingLeft=4;spacingRight=4;overflow=hidden;rotatable=0;points=[[0,0.5],[1,0.5]];portConstraint=eastwest;whiteSpace=wrap;html=1;" vertex="1" parent="KJHNV3jYbjOyEQVk-YHy-36">
          <mxGeometry y="26" width="160" height="54" as="geometry" />
        </mxCell>
        <mxCell id="KJHNV3jYbjOyEQVk-YHy-38" value="" style="line;strokeWidth=1;fillColor=none;align=left;verticalAlign=middle;spacingTop=-1;spacingLeft=3;spacingRight=3;rotatable=0;labelPosition=right;points=[];portConstraint=eastwest;strokeColor=inherit;" vertex="1" parent="KJHNV3jYbjOyEQVk-YHy-36">
          <mxGeometry y="80" width="160" height="8" as="geometry" />
        </mxCell>
        <mxCell id="KJHNV3jYbjOyEQVk-YHy-39" value="+&amp;nbsp;__add__&lt;span style=&quot;background-color: initial;&quot;&gt;()&lt;/span&gt;&lt;br&gt;+&amp;nbsp;format&lt;span style=&quot;background-color: initial;&quot;&gt;()&lt;/span&gt;&lt;br&gt;+&amp;nbsp;from_examples()&lt;br&gt;+&amp;nbsp;from_file&lt;span style=&quot;background-color: initial;&quot;&gt;()&lt;/span&gt;&lt;br&gt;&lt;i&gt;+&amp;nbsp;&lt;/i&gt;from_template&lt;i style=&quot;background-color: initial;&quot;&gt;()&lt;/i&gt;" style="text;strokeColor=none;fillColor=none;align=left;verticalAlign=top;spacingLeft=4;spacingRight=4;overflow=hidden;rotatable=0;points=[[0,0.5],[1,0.5]];portConstraint=eastwest;whiteSpace=wrap;html=1;" vertex="1" parent="KJHNV3jYbjOyEQVk-YHy-36">
          <mxGeometry y="88" width="160" height="82" as="geometry" />
        </mxCell>
      </root>
    </mxGraphModel>
  </diagram>
</mxfile>
